<svg version="1.0" xmlns="http://www.w3.org/2000/svg"
 width="418" height="418" viewBox="0 0 418 418"
 preserveAspectRatio="xMidYMid meet">
<g transform="translate(0,418) scale(0.03333,-0.03333)"
fill="#000000" stroke="none">
<path d="M10441 8033 c-30 -60 -161 -350 -161 -357 0 -3 125 -6 279 -6 l278 0
87 188 c47 104 86 194 86 200 0 9 -69 12 -275 12 l-275 0 -19 -37z"/>
<path d="M2727 7473 c-14 -26 -79 -167 -145 -313 -160 -354 -697 -1525 -883
-1926 -82 -176 -149 -324 -149 -328 0 -3 125 -5 277 -4 l277 3 231 496 c298
642 662 1427 758 1636 l42 93 548 -3 549 -2 25 -29 c20 -24 24 -37 20 -67 -3
-20 -60 -156 -127 -301 -261 -561 -255 -551 -347 -600 -77 -42 -141 -48 -507
-48 -440 0 -394 19 -554 -236 -45 -72 -82 -134 -82 -138 0 -11 1055 -7 1158 5
263 29 453 147 580 358 49 82 392 822 430 926 20 55 26 90 26 165 1 87 -1 99
-28 148 -37 67 -83 108 -161 142 -143 65 -115 63 -1057 67 l-857 4 -24 -48z"/>
<path d="M5890 7505 c-221 -31 -393 -117 -536 -266 -105 -111 -134 -163 -397
-729 -275 -593 -367 -793 -367 -802 0 -4 123 -8 274 -8 207 0 276 3 283 13 6
6 40 75 76 152 36 77 147 316 247 530 291 623 297 633 429 698 l66 32 430 5
c542 6 492 -13 645 247 44 74 80 136 80 139 0 2 -255 4 -567 3 -412 -1 -594
-5 -663 -14z"/>
<path d="M7755 7509 c-248 -33 -458 -155 -581 -340 -58 -87 -396 -808 -452
-964 -32 -89 -36 -207 -9 -277 22 -57 98 -131 170 -163 130 -60 132 -60 847
-60 717 0 736 1 890 59 153 57 277 158 365 301 26 40 96 181 157 312 61 131
142 306 180 388 107 228 132 304 132 400 1 136 -57 225 -189 287 -130 60 -140
61 -820 64 -341 1 -651 -2 -690 -7z m1060 -393 c41 -18 59 -48 52 -91 -7 -45
-346 -772 -381 -818 -34 -44 -105 -93 -160 -110 -30 -9 -167 -12 -513 -12
-463 0 -472 0 -500 21 -21 16 -29 31 -31 61 -3 34 20 90 144 359 200 435 227
487 281 531 87 72 92 72 611 73 377 0 469 -3 497 -14z"/>
<path d="M10161 7428 c-28 -65 -803 -1742 -860 -1861 -63 -131 -126 -204 -219
-249 l-67 -33 -230 -5 c-285 -7 -280 -5 -362 -140 -22 -36 -63 -105 -91 -153
l-52 -88 427 4 c400 3 433 5 511 25 170 45 336 147 439 271 101 121 51 18 843
1741 128 278 234 511 237 518 4 9 -55 12 -276 12 l-282 0 -18 -42z"/>
</g>
</svg>
